<svg data-v-0dd9719b="" version="1.0" xmlns="http://www.w3.org/2000/svg" xmlns:xlink="http://www.w3.org/1999/xlink" width="100%" height="100%" viewBox="0 0 340.000000 250.000000" preserveAspectRatio="xMidYMid meet" color-interpolation-filters="sRGB" style="margin: auto;"> <rect data-v-0dd9719b="" x="0" y="0" width="100%" height="100%" fill="#fff" fill-opacity="1" class="background"></rect> <rect data-v-0dd9719b="" x="0" y="0" width="100%" height="100%" fill="url(#watermark)" fill-opacity="1" class="watermarklayer"></rect> <g data-v-0dd9719b="" fill="#359f1b" class="iconblsvg-g iconsvg" transform="translate(65.0631332397461,110.7512788772583)"><g class="tp-name"><g data-gra="path-name" transform="translate(0, 1.8617566131914458)"><g transform="scale(1)"><path d="M15.32-8.16L15.32-8.16Q15.32-5.39 14.36-3.29 13.41-1.2 11.59-0.06 9.77 1.08 7.25 1.08L7.25 1.08 1.92 1.08 1.92-17.4 7.25-17.4Q9.77-17.4 11.59-16.27 13.41-15.13 14.36-13.03 15.32-10.94 15.32-8.16ZM14.24-8.16L14.24-8.16Q14.24-10.63 13.44-12.48 12.64-14.34 11.06-15.36 9.48-16.37 7.21-16.37L7.21-16.37 2.97-16.37 2.97 0.05 7.21 0.05Q9.46 0.05 11.05-0.98 12.64-2.01 13.44-3.85 14.24-5.7 14.24-8.16ZM28.85-9.1L28.85-2.13Q28.85-0.12 28.92 1.08L28.92 1.08 28.03 1.08Q27.94 0.24 27.89-2.11L27.89-2.11Q27.29-0.48 26.12 0.42 24.94 1.32 23.32 1.32L23.32 1.32Q21.74 1.32 20.53 0.44 19.32-0.43 18.65-2 17.98-3.57 17.98-5.6L17.98-5.6Q17.98-7.64 18.65-9.22 19.32-10.8 20.53-11.67 21.74-12.54 23.32-12.54L23.32-12.54Q24.94-12.54 26.12-11.63 27.29-10.72 27.89-9.12L27.89-9.12Q27.94-11.47 28.03-12.3L28.03-12.3 28.92-12.3Q28.85-11.13 28.85-9.1L28.85-9.1ZM27.87-5.6L27.87-5.6Q27.87-7.37 27.3-8.74 26.74-10.1 25.73-10.84 24.73-11.59 23.44-11.59L23.44-11.59Q22.14-11.59 21.15-10.83 20.16-10.08 19.59-8.73 19.03-7.37 19.03-5.6L19.03-5.6Q19.03-3.85 19.59-2.5 20.16-1.15 21.16-0.39 22.17 0.36 23.44 0.36L23.44 0.36Q24.73 0.36 25.73-0.39 26.74-1.15 27.3-2.5 27.87-3.85 27.87-5.6ZM33.2-16.93L33.2-16.93Q33.66-16.93 33.9-16.67 34.14-16.42 34.14-15.99L34.14-15.99Q34.14-15.54 33.9-15.3 33.66-15.06 33.2-15.06L33.2-15.06Q32.77-15.06 32.52-15.31 32.27-15.56 32.27-15.99L32.27-15.99Q32.27-16.42 32.53-16.67 32.8-16.93 33.2-16.93ZM30.79 6.34L30.79 6.34Q29.92 6.34 29.28 6.06L29.28 6.06 29.28 5.19Q30.04 5.36 30.79 5.36L30.79 5.36Q31.72 5.36 32.2 4.87 32.68 4.38 32.68 3.45L32.68 3.45 32.68-12.3 33.73-12.3 33.73 3.4Q33.73 4.79 32.95 5.57 32.17 6.34 30.79 6.34ZM38.28-16.93L38.28-16.93Q38.73-16.93 38.97-16.67 39.21-16.42 39.21-15.99L39.21-15.99Q39.21-15.54 38.97-15.3 38.73-15.06 38.28-15.06L38.28-15.06Q37.85-15.06 37.6-15.31 37.35-15.56 37.35-15.99L37.35-15.99Q37.35-16.42 37.61-16.67 37.87-16.93 38.28-16.93ZM37.75-12.3L38.81-12.3 38.81 1.08 37.75 1.08 37.75-12.3ZM52.88-7.9L52.88-7.9 52.88 1.08 51.9 1.08 51.9-7.76Q51.9-9.72 51.01-10.65 50.13-11.59 48.26-11.59L48.26-11.59Q46.92-11.59 45.87-10.92 44.81-10.25 44.23-9.03 43.64-7.8 43.64-6.25L43.64-6.25 43.64 1.08 42.61 1.08 42.61-9.1Q42.61-11.13 42.54-12.3L42.54-12.3 43.4-12.3Q43.5-11.51 43.55-9.29L43.55-9.29Q44.22-10.89 45.45-11.72 46.68-12.54 48.45-12.54L48.45-12.54Q50.56-12.54 51.72-11.32 52.88-10.1 52.88-7.9Z" transform="translate(-1.9200000762939453, 18.43000030517578)"></path></g></g> <g transform="translate(53.959999084472656, 0)"><g><g class="imagesvg"><g><rect fill="#359f1b" fill-opacity="0" stroke-width="2" x="0" y="0" width="31.353740001990854" height="28.497441445871186" class="image-rect"></rect> <svg x="0" y="0" width="31.353740001990854" height="28.497441445871186" filtersec="colorsb1052264758" class="image-svg-svg primary" style="overflow: visible;"><svg version="1.1" id="图层_1" xmlns="http://www.w3.org/2000/svg" xmlns:xlink="http://www.w3.org/1999/xlink" x="0px" y="0px" viewBox="1.0299999713897705 0.9989337921142578 97.93687438964844 89.01480102539062" enable-background="new 0 0 100 91" xml:space="preserve">
<path fill="#4ABA00" d="M90.93,77.9c-8.46,9.88-21.42,13.61-33.25,10.76c6.84-1.51,13.25-5.17,18.16-10.9
	c12.01-14.03,10.37-35.15-3.66-47.16c-4.15-3.55-8.93-5.9-13.9-7.1c9.91-2.19,20.7,0.13,29,7.24
	C101.3,42.76,102.94,63.87,90.93,77.9z"></path>
<ellipse transform="matrix(0.1832 -0.9831 0.9831 0.1832 3.7175 116.1553)" fill="#4ABA00" cx="71.76" cy="55.84" rx="9.58" ry="9.58"></ellipse>
<path fill="#359F1B" d="M86.44,48.06c5.04,14.1,1.18,29.22-8.66,39.22c-6.39,2.51-13.42,3-20.1,1.39
	c6.83-1.51,13.25-5.17,18.16-10.9c12.01-14.03,10.37-35.15-3.66-47.16c-2.93-2.51-6.18-4.41-9.58-5.73
	C73.31,28.38,82.35,36.62,86.44,48.06z"></path>
<path fill="#00A0EE" d="M1.03,82.97l9.39-14.89c-0.05-0.14-0.11-0.27-0.16-0.41C5.93,55.42,9.18,42.32,17.56,33.5
	c-2.11,6.68-2.15,14.07,0.36,21.18c6.15,17.42,25.25,26.55,42.67,20.41c5.16-1.82,9.58-4.78,13.1-8.49
	c-3.06,9.68-10.46,17.86-20.77,21.5c-12.92,4.56-26.77,0.7-35.57-8.7L1.03,82.97z"></path>
<ellipse transform="matrix(0.1832 -0.9831 0.9831 0.1832 -29.3933 88.9722)" fill="#00A0EE" cx="38.85" cy="62.18" rx="9.58" ry="9.58"></ellipse>
<path fill="#1681E5" d="M39.12,78.9c-15-2.32-26.5-13.09-30.49-26.76c0.94-6.93,3.99-13.48,8.72-18.68
	c-2.04,6.86-1.97,14.38,0.68,21.55c6.5,17.56,26.03,26.32,43.64,19.56c3.68-1.41,6.97-3.4,9.83-5.81
	C63.07,76.66,51.29,80.78,39.12,78.9z"></path>
<g>
	<path fill="#4ABA00" d="M59.22,1.57c12.78,2.38,22.5,11.75,25.95,23.42c-4.73-5.16-11.11-8.89-18.52-10.27
		c-18.16-3.38-35.62,8.59-39.01,26.75c-1,5.37-0.65,10.69,0.8,15.59c-6.86-7.49-10.23-17.99-8.23-28.74
		C23.6,10.16,41.06-1.81,59.22,1.57z"></path>
</g>
<path fill="#FFD100" d="M59.22,1.57c12.78,2.38,22.5,11.75,25.95,23.42c-4.73-5.16-11.11-8.89-18.52-10.27
	c-18.16-3.38-35.62,8.59-39.01,26.75c-1,5.37-0.65,10.69,0.8,15.59c-6.86-7.49-10.23-17.99-8.23-28.74
	C23.6,10.16,41.06-1.81,59.22,1.57z"></path>
<ellipse transform="matrix(0.1832 -0.9831 0.9831 0.1832 11.0823 73.109)" fill="#FFD100" cx="49.54" cy="29.89" rx="9.58" ry="9.58"></ellipse>
<path fill="#FDBC2D" d="M34.99,20.77C44.51,8.95,59.6,4.4,73.43,7.79c5.53,4.29,9.66,10.21,11.8,16.91
	c-4.91-5.2-11.46-8.92-18.99-10.21c-18.45-3.18-35.82,9.34-38.79,27.96c-0.62,3.89-0.55,7.73,0.1,11.42
	C24.92,42.62,27.27,30.36,34.99,20.77z"></path>
</svg></svg> <!----></g></g></g></g> <g data-gra="path-name-1" fill="#359f1b" transform="translate(88.31373977661133, 1.8617566131914458)"><g transform="scale(1)"><path d="M2.11-17.4L3.18-17.4 3.18 1.08 2.11 1.08 2.11-17.4ZM17.38-7.9L17.38-7.9 17.38 1.08 16.4 1.08 16.4-7.76Q16.4-9.72 15.51-10.65 14.63-11.59 12.76-11.59L12.76-11.59Q11.42-11.59 10.37-10.92 9.31-10.25 8.73-9.03 8.14-7.8 8.14-6.25L8.14-6.25 8.14 1.08 7.11 1.08 7.11-9.1Q7.11-11.13 7.04-12.3L7.04-12.3 7.9-12.3Q8-11.51 8.04-9.29L8.04-9.29Q8.71-10.89 9.95-11.72 11.18-12.54 12.95-12.54L12.95-12.54Q15.06-12.54 16.22-11.32 17.38-10.1 17.38-7.9ZM23.29-14.79L23.29-14.79 23.29-12.3 26.84-12.3 26.84-11.35 23.29-11.35 23.29 1.08 22.26 1.08 22.26-11.35 19.97-11.35 19.97-12.3 22.26-12.3 22.26-14.89Q22.26-16.57 23.21-17.5 24.15-18.43 25.81-18.43L25.81-18.43Q26.91-18.43 27.48-18.1L27.48-18.1 27.48-17.21Q26.76-17.5 25.85-17.5L25.85-17.5Q23.29-17.5 23.29-14.79ZM34.5-12.54L34.5-12.54Q36.1-12.54 37.33-11.66 38.57-10.77 39.25-9.19 39.93-7.61 39.93-5.6L39.93-5.6Q39.93-3.59 39.25-2.02 38.57-0.45 37.33 0.43 36.1 1.32 34.5 1.32L34.5 1.32Q32.89 1.32 31.66 0.43 30.43-0.45 29.74-2.03 29.06-3.61 29.06-5.6L29.06-5.6Q29.06-7.61 29.74-9.19 30.43-10.77 31.66-11.66 32.89-12.54 34.5-12.54ZM34.5-11.59L34.5-11.59Q33.2-11.59 32.21-10.84 31.22-10.1 30.67-8.74 30.12-7.37 30.12-5.6L30.12-5.6Q30.12-3.83 30.67-2.48 31.22-1.13 32.21-0.38 33.2 0.36 34.5 0.36L34.5 0.36Q35.79 0.36 36.79-0.38 37.8-1.13 38.36-2.48 38.93-3.83 38.93-5.6L38.93-5.6Q38.93-7.37 38.36-8.74 37.8-10.1 36.79-10.84 35.79-11.59 34.5-11.59ZM48.14-12.54L48.53-12.52 48.53-11.51Q48.36-11.54 47.95-11.54L47.95-11.54Q46.18-11.54 45.1-10.23 44.02-8.93 44.02-6.85L44.02-6.85 44.02 1.08 43.02 1.08 43.02-9.1Q43.02-11.13 42.95-12.3L42.95-12.3 43.81-12.3Q43.88-11.61 43.93-9.74L43.93-9.74Q44.48-11.08 45.56-11.81 46.63-12.54 48.14-12.54L48.14-12.54ZM68.71-8.4L68.71-8.4 68.71 1.08 67.68 1.08 67.68-8.26Q67.68-9.98 66.92-10.78 66.17-11.59 64.56-11.59L64.56-11.59Q63.42-11.59 62.49-10.99 61.57-10.39 61.06-9.31 60.54-8.24 60.54-6.87L60.54-6.87 60.54 1.08 59.54 1.08 59.54-8.26Q59.54-9.96 58.75-10.77 57.96-11.59 56.35-11.59L56.35-11.59Q55.2-11.59 54.28-10.99 53.36-10.39 52.85-9.31 52.33-8.24 52.33-6.87L52.33-6.87 52.33 1.08 51.33 1.08 51.33-9.1Q51.33-11.13 51.25-12.3L51.25-12.3 52.12-12.3Q52.19-11.59 52.24-9.7L52.24-9.7Q52.83-11.08 53.94-11.81 55.04-12.54 56.57-12.54L56.57-12.54Q58.1-12.54 59.11-11.79 60.11-11.04 60.42-9.65L60.42-9.65Q61.02-11.06 62.1-11.8 63.18-12.54 64.71-12.54L64.71-12.54Q66.6-12.54 67.65-11.45 68.71-10.37 68.71-8.4ZM82.59-9.1L82.59-2.13Q82.59-0.12 82.66 1.08L82.66 1.08 81.78 1.08Q81.68 0.24 81.63-2.11L81.63-2.11Q81.03-0.48 79.86 0.42 78.69 1.32 77.06 1.32L77.06 1.32Q75.48 1.32 74.27 0.44 73.06-0.43 72.39-2 71.72-3.57 71.72-5.6L71.72-5.6Q71.72-7.64 72.39-9.22 73.06-10.8 74.27-11.67 75.48-12.54 77.06-12.54L77.06-12.54Q78.69-12.54 79.86-11.63 81.03-10.72 81.63-9.12L81.63-9.12Q81.68-11.47 81.78-12.3L81.78-12.3 82.66-12.3Q82.59-11.13 82.59-9.1L82.59-9.1ZM81.61-5.6L81.61-5.6Q81.61-7.37 81.05-8.74 80.48-10.1 79.48-10.84 78.47-11.59 77.18-11.59L77.18-11.59Q75.89-11.59 74.89-10.83 73.9-10.08 73.34-8.73 72.78-7.37 72.78-5.6L72.78-5.6Q72.78-3.85 73.34-2.5 73.9-1.15 74.91-0.39 75.91 0.36 77.18 0.36L77.18 0.36Q78.47 0.36 79.48-0.39 80.48-1.15 81.05-2.5 81.61-3.85 81.61-5.6ZM92.14-11.35L88.62-11.35 88.62-1.56Q88.62-0.6 89.17-0.11 89.72 0.38 90.68 0.38L90.68 0.38Q91.38 0.38 92.14 0.19L92.14 0.19 92.14 1.1Q91.59 1.32 90.66 1.32L90.66 1.32Q89.27 1.32 88.43 0.55 87.59-0.22 87.59-1.58L87.59-1.58 87.59-11.35 85.27-11.35 85.27-12.3 87.59-12.3 87.59-15.85 88.62-15.85 88.62-12.3 92.14-12.3 92.14-11.35ZM95.66-16.93L95.66-16.93Q96.12-16.93 96.36-16.67 96.6-16.42 96.6-15.99L96.6-15.99Q96.6-15.54 96.36-15.3 96.12-15.06 95.66-15.06L95.66-15.06Q95.23-15.06 94.98-15.31 94.73-15.56 94.73-15.99L94.73-15.99Q94.73-16.42 94.99-16.67 95.25-16.93 95.66-16.93ZM95.13-12.3L96.19-12.3 96.19 1.08 95.13 1.08 95.13-12.3ZM104.9-12.54L104.9-12.54Q106.51-12.54 107.74-11.66 108.97-10.77 109.65-9.19 110.34-7.61 110.34-5.6L110.34-5.6Q110.34-3.59 109.65-2.02 108.97-0.45 107.74 0.43 106.51 1.32 104.9 1.32L104.9 1.32Q103.3 1.32 102.07 0.43 100.83-0.45 100.15-2.03 99.47-3.61 99.47-5.6L99.47-5.6Q99.47-7.61 100.15-9.19 100.83-10.77 102.07-11.66 103.3-12.54 104.9-12.54ZM104.9-11.59L104.9-11.59Q103.61-11.59 102.62-10.84 101.62-10.1 101.07-8.74 100.52-7.37 100.52-5.6L100.52-5.6Q100.52-3.83 101.07-2.48 101.62-1.13 102.62-0.38 103.61 0.36 104.9 0.36L104.9 0.36Q106.19 0.36 107.2-0.38 108.21-1.13 108.77-2.48 109.33-3.83 109.33-5.6L109.33-5.6Q109.33-7.37 108.77-8.74 108.21-10.1 107.2-10.84 106.19-11.59 104.9-11.59ZM123.67-7.9L123.67-7.9 123.67 1.08 122.69 1.08 122.69-7.76Q122.69-9.72 121.8-10.65 120.92-11.59 119.05-11.59L119.05-11.59Q117.71-11.59 116.66-10.92 115.6-10.25 115.02-9.03 114.43-7.8 114.43-6.25L114.43-6.25 114.43 1.08 113.4 1.08 113.4-9.1Q113.4-11.13 113.33-12.3L113.33-12.3 114.19-12.3Q114.29-11.51 114.33-9.29L114.33-9.29Q115-10.89 116.24-11.72 117.47-12.54 119.24-12.54L119.24-12.54Q121.35-12.54 122.51-11.32 123.67-10.1 123.67-7.9Z" transform="translate(-2.109999895095825, 18.43000030517578)"></path></g></g></g> <!----></g><defs v-gra="od"></defs></svg>